<mxfile host="app.diagrams.net" modified="2022-03-04T01:22:37.455Z" agent="5.0 (Windows)" etag="_ZV7hEOmA2ivHlRUpRQz" version="16.6.3" type="github">
  <diagram id="Er6lNVDn4B2VuYiR8_et" name="Page-1">
    <mxGraphModel dx="1875" dy="1011" grid="1" gridSize="10" guides="1" tooltips="1" connect="1" arrows="1" fold="1" page="1" pageScale="1" pageWidth="850" pageHeight="1100" math="0" shadow="0">
      <root>
        <mxCell id="0" />
        <mxCell id="1" parent="0" />
        <mxCell id="5BW_tHudnOTtSBd-slWF-1" value="Participant" style="swimlane;fontStyle=0;childLayout=stackLayout;horizontal=1;startSize=30;horizontalStack=0;resizeParent=1;resizeParentMax=0;resizeLast=0;collapsible=1;marginBottom=0;" parent="1" vertex="1">
          <mxGeometry x="369" y="600" width="200" height="150" as="geometry" />
        </mxCell>
        <mxCell id="5BW_tHudnOTtSBd-slWF-2" value="PlayerID (INT) [PK]*" style="text;strokeColor=none;fillColor=none;align=left;verticalAlign=middle;spacingLeft=4;spacingRight=4;overflow=hidden;points=[[0,0.5],[1,0.5]];portConstraint=eastwest;rotatable=0;" parent="5BW_tHudnOTtSBd-slWF-1" vertex="1">
          <mxGeometry y="30" width="200" height="30" as="geometry" />
        </mxCell>
        <mxCell id="5BW_tHudnOTtSBd-slWF-29" value="UserName (CHAR)*" style="text;strokeColor=none;fillColor=none;align=left;verticalAlign=middle;spacingLeft=4;spacingRight=4;overflow=hidden;points=[[0,0.5],[1,0.5]];portConstraint=eastwest;rotatable=0;" parent="5BW_tHudnOTtSBd-slWF-1" vertex="1">
          <mxGeometry y="60" width="200" height="30" as="geometry" />
        </mxCell>
        <mxCell id="5BW_tHudnOTtSBd-slWF-66" value="PlayerName (CHAR)" style="text;strokeColor=none;fillColor=none;align=left;verticalAlign=middle;spacingLeft=4;spacingRight=4;overflow=hidden;points=[[0,0.5],[1,0.5]];portConstraint=eastwest;rotatable=0;" parent="5BW_tHudnOTtSBd-slWF-1" vertex="1">
          <mxGeometry y="90" width="200" height="30" as="geometry" />
        </mxCell>
        <mxCell id="sSm314KVVRNHcJD5WZiC-2" value="Active (BOOLEAN)*" style="text;strokeColor=none;fillColor=none;align=left;verticalAlign=middle;spacingLeft=4;spacingRight=4;overflow=hidden;points=[[0,0.5],[1,0.5]];portConstraint=eastwest;rotatable=0;" vertex="1" parent="5BW_tHudnOTtSBd-slWF-1">
          <mxGeometry y="120" width="200" height="30" as="geometry" />
        </mxCell>
        <mxCell id="5BW_tHudnOTtSBd-slWF-5" value="Season" style="swimlane;fontStyle=0;childLayout=stackLayout;horizontal=1;startSize=30;horizontalStack=0;resizeParent=1;resizeParentMax=0;resizeLast=0;collapsible=1;marginBottom=0;" parent="1" vertex="1">
          <mxGeometry x="629" y="310" width="240" height="270" as="geometry" />
        </mxCell>
        <mxCell id="5BW_tHudnOTtSBd-slWF-20" value="SeasonID (INT) [PK]*" style="text;strokeColor=none;fillColor=none;align=left;verticalAlign=middle;spacingLeft=4;spacingRight=4;overflow=hidden;points=[[0,0.5],[1,0.5]];portConstraint=eastwest;rotatable=0;" parent="5BW_tHudnOTtSBd-slWF-5" vertex="1">
          <mxGeometry y="30" width="240" height="30" as="geometry" />
        </mxCell>
        <mxCell id="5BW_tHudnOTtSBd-slWF-7" value="ServerID (INT) [FK]*" style="text;strokeColor=none;fillColor=none;align=left;verticalAlign=middle;spacingLeft=4;spacingRight=4;overflow=hidden;points=[[0,0.5],[1,0.5]];portConstraint=eastwest;rotatable=0;" parent="5BW_tHudnOTtSBd-slWF-5" vertex="1">
          <mxGeometry y="60" width="240" height="30" as="geometry" />
        </mxCell>
        <mxCell id="sSm314KVVRNHcJD5WZiC-13" value="SeasonName (VARCHAR)" style="text;strokeColor=none;fillColor=none;align=left;verticalAlign=middle;spacingLeft=4;spacingRight=4;overflow=hidden;points=[[0,0.5],[1,0.5]];portConstraint=eastwest;rotatable=0;" vertex="1" parent="5BW_tHudnOTtSBd-slWF-5">
          <mxGeometry y="90" width="240" height="30" as="geometry" />
        </mxCell>
        <mxCell id="5BW_tHudnOTtSBd-slWF-6" value="SeasonInfo (VARCHAR)" style="text;strokeColor=none;fillColor=none;align=left;verticalAlign=middle;spacingLeft=4;spacingRight=4;overflow=hidden;points=[[0,0.5],[1,0.5]];portConstraint=eastwest;rotatable=0;" parent="5BW_tHudnOTtSBd-slWF-5" vertex="1">
          <mxGeometry y="120" width="240" height="30" as="geometry" />
        </mxCell>
        <mxCell id="sSm314KVVRNHcJD5WZiC-19" value="MaxParticipants (TINYINT)*" style="text;strokeColor=none;fillColor=none;align=left;verticalAlign=middle;spacingLeft=4;spacingRight=4;overflow=hidden;points=[[0,0.5],[1,0.5]];portConstraint=eastwest;rotatable=0;" vertex="1" parent="5BW_tHudnOTtSBd-slWF-5">
          <mxGeometry y="150" width="240" height="30" as="geometry" />
        </mxCell>
        <mxCell id="sSm314KVVRNHcJD5WZiC-21" value="CarryOverTeamsPerSession (BOOLEAN)*" style="text;strokeColor=none;fillColor=none;align=left;verticalAlign=middle;spacingLeft=4;spacingRight=4;overflow=hidden;points=[[0,0.5],[1,0.5]];portConstraint=eastwest;rotatable=0;" vertex="1" parent="5BW_tHudnOTtSBd-slWF-5">
          <mxGeometry y="180" width="240" height="30" as="geometry" />
        </mxCell>
        <mxCell id="5BW_tHudnOTtSBd-slWF-8" value="StartDate (DATETIME)" style="text;strokeColor=none;fillColor=none;align=left;verticalAlign=middle;spacingLeft=4;spacingRight=4;overflow=hidden;points=[[0,0.5],[1,0.5]];portConstraint=eastwest;rotatable=0;" parent="5BW_tHudnOTtSBd-slWF-5" vertex="1">
          <mxGeometry y="210" width="240" height="30" as="geometry" />
        </mxCell>
        <mxCell id="5BW_tHudnOTtSBd-slWF-19" value="EndDate (DATETIME)" style="text;strokeColor=none;fillColor=none;align=left;verticalAlign=middle;spacingLeft=4;spacingRight=4;overflow=hidden;points=[[0,0.5],[1,0.5]];portConstraint=eastwest;rotatable=0;" parent="5BW_tHudnOTtSBd-slWF-5" vertex="1">
          <mxGeometry y="240" width="240" height="30" as="geometry" />
        </mxCell>
        <mxCell id="5BW_tHudnOTtSBd-slWF-21" value="Match" style="swimlane;fontStyle=0;childLayout=stackLayout;horizontal=1;startSize=30;horizontalStack=0;resizeParent=1;resizeParentMax=0;resizeLast=0;collapsible=1;marginBottom=0;" parent="1" vertex="1">
          <mxGeometry x="1260" y="510" width="240" height="150" as="geometry" />
        </mxCell>
        <mxCell id="5BW_tHudnOTtSBd-slWF-34" value="MatchID (INT) [PK]" style="text;strokeColor=none;fillColor=none;align=left;verticalAlign=middle;spacingLeft=4;spacingRight=4;overflow=hidden;points=[[0,0.5],[1,0.5]];portConstraint=eastwest;rotatable=0;" parent="5BW_tHudnOTtSBd-slWF-21" vertex="1">
          <mxGeometry y="30" width="240" height="30" as="geometry" />
        </mxCell>
        <mxCell id="5BW_tHudnOTtSBd-slWF-75" value="SessionID (INT) [FK]" style="text;strokeColor=none;fillColor=none;align=left;verticalAlign=middle;spacingLeft=4;spacingRight=4;overflow=hidden;points=[[0,0.5],[1,0.5]];portConstraint=eastwest;rotatable=0;" parent="5BW_tHudnOTtSBd-slWF-21" vertex="1">
          <mxGeometry y="60" width="240" height="30" as="geometry" />
        </mxCell>
        <mxCell id="5BW_tHudnOTtSBd-slWF-36" value="NumberOfOpponents (TINYINT)" style="text;strokeColor=none;fillColor=none;align=left;verticalAlign=middle;spacingLeft=4;spacingRight=4;overflow=hidden;points=[[0,0.5],[1,0.5]];portConstraint=eastwest;rotatable=0;" parent="5BW_tHudnOTtSBd-slWF-21" vertex="1">
          <mxGeometry y="90" width="240" height="30" as="geometry" />
        </mxCell>
        <mxCell id="5BW_tHudnOTtSBd-slWF-83" value="Confirmed (BOOLEAN)" style="text;strokeColor=none;fillColor=none;align=left;verticalAlign=middle;spacingLeft=4;spacingRight=4;overflow=hidden;points=[[0,0.5],[1,0.5]];portConstraint=eastwest;rotatable=0;" parent="5BW_tHudnOTtSBd-slWF-21" vertex="1">
          <mxGeometry y="120" width="240" height="30" as="geometry" />
        </mxCell>
        <mxCell id="5BW_tHudnOTtSBd-slWF-30" value="Team" style="swimlane;fontStyle=0;childLayout=stackLayout;horizontal=1;startSize=30;horizontalStack=0;resizeParent=1;resizeParentMax=0;resizeLast=0;collapsible=1;marginBottom=0;" parent="1" vertex="1">
          <mxGeometry x="950" y="570" width="200" height="120" as="geometry" />
        </mxCell>
        <mxCell id="5BW_tHudnOTtSBd-slWF-31" value="TeamID (INT) [PK]" style="text;strokeColor=none;fillColor=none;align=left;verticalAlign=middle;spacingLeft=4;spacingRight=4;overflow=hidden;points=[[0,0.5],[1,0.5]];portConstraint=eastwest;rotatable=0;" parent="5BW_tHudnOTtSBd-slWF-30" vertex="1">
          <mxGeometry y="30" width="200" height="30" as="geometry" />
        </mxCell>
        <mxCell id="5BW_tHudnOTtSBd-slWF-32" value="SessionID (INT) [FK]" style="text;strokeColor=none;fillColor=none;align=left;verticalAlign=middle;spacingLeft=4;spacingRight=4;overflow=hidden;points=[[0,0.5],[1,0.5]];portConstraint=eastwest;rotatable=0;" parent="5BW_tHudnOTtSBd-slWF-30" vertex="1">
          <mxGeometry y="60" width="200" height="30" as="geometry" />
        </mxCell>
        <mxCell id="5BW_tHudnOTtSBd-slWF-44" value="Teamname (VARCHAR)" style="text;strokeColor=none;fillColor=none;align=left;verticalAlign=middle;spacingLeft=4;spacingRight=4;overflow=hidden;points=[[0,0.5],[1,0.5]];portConstraint=eastwest;rotatable=0;" parent="5BW_tHudnOTtSBd-slWF-30" vertex="1">
          <mxGeometry y="90" width="200" height="30" as="geometry" />
        </mxCell>
        <mxCell id="5BW_tHudnOTtSBd-slWF-40" value="Session" style="swimlane;fontStyle=0;childLayout=stackLayout;horizontal=1;startSize=30;horizontalStack=0;resizeParent=1;resizeParentMax=0;resizeLast=0;collapsible=1;marginBottom=0;" parent="1" vertex="1">
          <mxGeometry x="950" y="270" width="200" height="210" as="geometry" />
        </mxCell>
        <mxCell id="5BW_tHudnOTtSBd-slWF-71" value="SessionID (INT) [PK]*" style="text;strokeColor=none;fillColor=none;align=left;verticalAlign=middle;spacingLeft=4;spacingRight=4;overflow=hidden;points=[[0,0.5],[1,0.5]];portConstraint=eastwest;rotatable=0;" parent="5BW_tHudnOTtSBd-slWF-40" vertex="1">
          <mxGeometry y="30" width="200" height="30" as="geometry" />
        </mxCell>
        <mxCell id="5BW_tHudnOTtSBd-slWF-42" value="SeasonID (INT) [FK]*" style="text;strokeColor=none;fillColor=none;align=left;verticalAlign=middle;spacingLeft=4;spacingRight=4;overflow=hidden;points=[[0,0.5],[1,0.5]];portConstraint=eastwest;rotatable=0;" parent="5BW_tHudnOTtSBd-slWF-40" vertex="1">
          <mxGeometry y="60" width="200" height="30" as="geometry" />
        </mxCell>
        <mxCell id="5BW_tHudnOTtSBd-slWF-73" value="Gamemode (ENUM)*" style="text;strokeColor=none;fillColor=none;align=left;verticalAlign=middle;spacingLeft=4;spacingRight=4;overflow=hidden;points=[[0,0.5],[1,0.5]];portConstraint=eastwest;rotatable=0;" parent="5BW_tHudnOTtSBd-slWF-40" vertex="1">
          <mxGeometry y="90" width="200" height="30" as="geometry" />
        </mxCell>
        <mxCell id="5BW_tHudnOTtSBd-slWF-87" value="StartDate (DATETIME)" style="text;strokeColor=none;fillColor=none;align=left;verticalAlign=middle;spacingLeft=4;spacingRight=4;overflow=hidden;points=[[0,0.5],[1,0.5]];portConstraint=eastwest;rotatable=0;" parent="5BW_tHudnOTtSBd-slWF-40" vertex="1">
          <mxGeometry y="120" width="200" height="30" as="geometry" />
        </mxCell>
        <mxCell id="5BW_tHudnOTtSBd-slWF-86" value="EndDate (DATETIME)" style="text;strokeColor=none;fillColor=none;align=left;verticalAlign=middle;spacingLeft=4;spacingRight=4;overflow=hidden;points=[[0,0.5],[1,0.5]];portConstraint=eastwest;rotatable=0;" parent="5BW_tHudnOTtSBd-slWF-40" vertex="1">
          <mxGeometry y="150" width="200" height="30" as="geometry" />
        </mxCell>
        <mxCell id="5BW_tHudnOTtSBd-slWF-56" value="SessionIndex (SMALLINT)*" style="text;strokeColor=none;fillColor=none;align=left;verticalAlign=middle;spacingLeft=4;spacingRight=4;overflow=hidden;points=[[0,0.5],[1,0.5]];portConstraint=eastwest;rotatable=0;" parent="5BW_tHudnOTtSBd-slWF-40" vertex="1">
          <mxGeometry y="180" width="200" height="30" as="geometry" />
        </mxCell>
        <mxCell id="5BW_tHudnOTtSBd-slWF-74" value="Match_Player_Detail" style="swimlane;fontStyle=0;childLayout=stackLayout;horizontal=1;startSize=30;horizontalStack=0;resizeParent=1;resizeParentMax=0;resizeLast=0;collapsible=1;marginBottom=0;" parent="1" vertex="1">
          <mxGeometry x="780" y="820" width="200" height="240" as="geometry" />
        </mxCell>
        <mxCell id="5BW_tHudnOTtSBd-slWF-76" value="MatchID (INT) [CK, FK]" style="text;strokeColor=none;fillColor=none;align=left;verticalAlign=middle;spacingLeft=4;spacingRight=4;overflow=hidden;points=[[0,0.5],[1,0.5]];portConstraint=eastwest;rotatable=0;" parent="5BW_tHudnOTtSBd-slWF-74" vertex="1">
          <mxGeometry y="30" width="200" height="30" as="geometry" />
        </mxCell>
        <mxCell id="5BW_tHudnOTtSBd-slWF-77" value="PlayerID (INT) [CK, FK]" style="text;strokeColor=none;fillColor=none;align=left;verticalAlign=middle;spacingLeft=4;spacingRight=4;overflow=hidden;points=[[0,0.5],[1,0.5]];portConstraint=eastwest;rotatable=0;" parent="5BW_tHudnOTtSBd-slWF-74" vertex="1">
          <mxGeometry y="60" width="200" height="30" as="geometry" />
        </mxCell>
        <mxCell id="5BW_tHudnOTtSBd-slWF-80" value="Wins (TINYINT)" style="text;strokeColor=none;fillColor=none;align=left;verticalAlign=middle;spacingLeft=4;spacingRight=4;overflow=hidden;points=[[0,0.5],[1,0.5]];portConstraint=eastwest;rotatable=0;" parent="5BW_tHudnOTtSBd-slWF-74" vertex="1">
          <mxGeometry y="90" width="200" height="30" as="geometry" />
        </mxCell>
        <mxCell id="5BW_tHudnOTtSBd-slWF-81" value="Losses (TINYINT)" style="text;strokeColor=none;fillColor=none;align=left;verticalAlign=middle;spacingLeft=4;spacingRight=4;overflow=hidden;points=[[0,0.5],[1,0.5]];portConstraint=eastwest;rotatable=0;" parent="5BW_tHudnOTtSBd-slWF-74" vertex="1">
          <mxGeometry y="120" width="200" height="30" as="geometry" />
        </mxCell>
        <mxCell id="5BW_tHudnOTtSBd-slWF-85" value="Draws (TINYINT)" style="text;strokeColor=none;fillColor=none;align=left;verticalAlign=middle;spacingLeft=4;spacingRight=4;overflow=hidden;points=[[0,0.5],[1,0.5]];portConstraint=eastwest;rotatable=0;" parent="5BW_tHudnOTtSBd-slWF-74" vertex="1">
          <mxGeometry y="150" width="200" height="30" as="geometry" />
        </mxCell>
        <mxCell id="5BW_tHudnOTtSBd-slWF-82" value="Reporter (BOOLEAN)" style="text;strokeColor=none;fillColor=none;align=left;verticalAlign=middle;spacingLeft=4;spacingRight=4;overflow=hidden;points=[[0,0.5],[1,0.5]];portConstraint=eastwest;rotatable=0;" parent="5BW_tHudnOTtSBd-slWF-74" vertex="1">
          <mxGeometry y="180" width="200" height="30" as="geometry" />
        </mxCell>
        <mxCell id="5BW_tHudnOTtSBd-slWF-84" value="DateRecorded (DATETIME)" style="text;strokeColor=none;fillColor=none;align=left;verticalAlign=middle;spacingLeft=4;spacingRight=4;overflow=hidden;points=[[0,0.5],[1,0.5]];portConstraint=eastwest;rotatable=0;" parent="5BW_tHudnOTtSBd-slWF-74" vertex="1">
          <mxGeometry y="210" width="200" height="30" as="geometry" />
        </mxCell>
        <mxCell id="5BW_tHudnOTtSBd-slWF-98" value="Season_Participant_Map" style="swimlane;fontStyle=0;childLayout=stackLayout;horizontal=1;startSize=30;horizontalStack=0;resizeParent=1;resizeParentMax=0;resizeLast=0;collapsible=1;marginBottom=0;" parent="1" vertex="1">
          <mxGeometry x="629" y="590" width="239" height="90" as="geometry" />
        </mxCell>
        <mxCell id="5BW_tHudnOTtSBd-slWF-99" value="PlayerID (INT) [CK, FK]*" style="text;strokeColor=none;fillColor=none;align=left;verticalAlign=middle;spacingLeft=4;spacingRight=4;overflow=hidden;points=[[0,0.5],[1,0.5]];portConstraint=eastwest;rotatable=0;" parent="5BW_tHudnOTtSBd-slWF-98" vertex="1">
          <mxGeometry y="30" width="239" height="30" as="geometry" />
        </mxCell>
        <mxCell id="5BW_tHudnOTtSBd-slWF-100" value="SeasonID (INT) [CK, FK]*" style="text;strokeColor=none;fillColor=none;align=left;verticalAlign=middle;spacingLeft=4;spacingRight=4;overflow=hidden;points=[[0,0.5],[1,0.5]];portConstraint=eastwest;rotatable=0;" parent="5BW_tHudnOTtSBd-slWF-98" vertex="1">
          <mxGeometry y="60" width="239" height="30" as="geometry" />
        </mxCell>
        <mxCell id="5BW_tHudnOTtSBd-slWF-102" value="Server" style="swimlane;fontStyle=0;childLayout=stackLayout;horizontal=1;startSize=30;horizontalStack=0;resizeParent=1;resizeParentMax=0;resizeLast=0;collapsible=1;marginBottom=0;" parent="1" vertex="1">
          <mxGeometry x="249" y="340" width="320" height="120" as="geometry" />
        </mxCell>
        <mxCell id="5BW_tHudnOTtSBd-slWF-103" value="ServerID (INT) (PK)*" style="text;strokeColor=none;fillColor=none;align=left;verticalAlign=middle;spacingLeft=4;spacingRight=4;overflow=hidden;points=[[0,0.5],[1,0.5]];portConstraint=eastwest;rotatable=0;" parent="5BW_tHudnOTtSBd-slWF-102" vertex="1">
          <mxGeometry y="30" width="320" height="30" as="geometry" />
        </mxCell>
        <mxCell id="5BW_tHudnOTtSBd-slWF-104" value="PastSeasonConfigAsDefault (BOOLEAN)*" style="text;strokeColor=none;fillColor=none;align=left;verticalAlign=middle;spacingLeft=4;spacingRight=4;overflow=hidden;points=[[0,0.5],[1,0.5]];portConstraint=eastwest;rotatable=0;" parent="5BW_tHudnOTtSBd-slWF-102" vertex="1">
          <mxGeometry y="60" width="320" height="30" as="geometry" />
        </mxCell>
        <mxCell id="sSm314KVVRNHcJD5WZiC-18" value="CarryOverTeamsPerSession (BOOLEAN)*" style="text;strokeColor=none;fillColor=none;align=left;verticalAlign=middle;spacingLeft=4;spacingRight=4;overflow=hidden;points=[[0,0.5],[1,0.5]];portConstraint=eastwest;rotatable=0;" vertex="1" parent="5BW_tHudnOTtSBd-slWF-102">
          <mxGeometry y="90" width="320" height="30" as="geometry" />
        </mxCell>
        <mxCell id="sSm314KVVRNHcJD5WZiC-1" value="" style="edgeStyle=entityRelationEdgeStyle;fontSize=12;html=1;endArrow=ERzeroToMany;startArrow=ERmandOne;rounded=0;entryX=0;entryY=0.5;entryDx=0;entryDy=0;" edge="1" parent="1" source="5BW_tHudnOTtSBd-slWF-103" target="5BW_tHudnOTtSBd-slWF-7">
          <mxGeometry width="100" height="100" relative="1" as="geometry">
            <mxPoint x="529" y="210" as="sourcePoint" />
            <mxPoint x="629" y="110" as="targetPoint" />
          </mxGeometry>
        </mxCell>
        <mxCell id="sSm314KVVRNHcJD5WZiC-7" value="&lt;div&gt;* = NOT NULL&lt;/div&gt;" style="text;html=1;align=center;verticalAlign=middle;resizable=0;points=[];autosize=1;strokeColor=none;fillColor=none;" vertex="1" parent="1">
          <mxGeometry x="10" y="10" width="90" height="20" as="geometry" />
        </mxCell>
        <mxCell id="sSm314KVVRNHcJD5WZiC-9" value="" style="edgeStyle=entityRelationEdgeStyle;fontSize=12;html=1;endArrow=ERoneToMany;startArrow=ERmandOne;rounded=0;" edge="1" parent="1" target="5BW_tHudnOTtSBd-slWF-42">
          <mxGeometry width="100" height="100" relative="1" as="geometry">
            <mxPoint x="869" y="345" as="sourcePoint" />
            <mxPoint x="949.0000000000002" y="336" as="targetPoint" />
          </mxGeometry>
        </mxCell>
        <mxCell id="sSm314KVVRNHcJD5WZiC-11" value="" style="edgeStyle=entityRelationEdgeStyle;fontSize=12;html=1;endArrow=ERzeroToMany;startArrow=ERmandOne;rounded=0;" edge="1" parent="1" source="5BW_tHudnOTtSBd-slWF-20" target="5BW_tHudnOTtSBd-slWF-100">
          <mxGeometry width="100" height="100" relative="1" as="geometry">
            <mxPoint x="519" y="410" as="sourcePoint" />
            <mxPoint x="1000" y="670" as="targetPoint" />
          </mxGeometry>
        </mxCell>
        <mxCell id="sSm314KVVRNHcJD5WZiC-14" value="Team_Participant_Map" style="swimlane;fontStyle=0;childLayout=stackLayout;horizontal=1;startSize=30;horizontalStack=0;resizeParent=1;resizeParentMax=0;resizeLast=0;collapsible=1;marginBottom=0;" vertex="1" parent="1">
          <mxGeometry x="629" y="700" width="241" height="90" as="geometry" />
        </mxCell>
        <mxCell id="sSm314KVVRNHcJD5WZiC-16" value="TeamID (INT) [CK, FK]" style="text;strokeColor=none;fillColor=none;align=left;verticalAlign=middle;spacingLeft=4;spacingRight=4;overflow=hidden;points=[[0,0.5],[1,0.5]];portConstraint=eastwest;rotatable=0;" vertex="1" parent="sSm314KVVRNHcJD5WZiC-14">
          <mxGeometry y="30" width="241" height="30" as="geometry" />
        </mxCell>
        <mxCell id="sSm314KVVRNHcJD5WZiC-15" value="PlayerID (INT) [CK, FK]" style="text;strokeColor=none;fillColor=none;align=left;verticalAlign=middle;spacingLeft=4;spacingRight=4;overflow=hidden;points=[[0,0.5],[1,0.5]];portConstraint=eastwest;rotatable=0;" vertex="1" parent="sSm314KVVRNHcJD5WZiC-14">
          <mxGeometry y="60" width="241" height="30" as="geometry" />
        </mxCell>
        <mxCell id="sSm314KVVRNHcJD5WZiC-25" value="" style="edgeStyle=entityRelationEdgeStyle;fontSize=12;html=1;endArrow=ERzeroToMany;startArrow=ERmandOne;rounded=0;exitX=1;exitY=0.5;exitDx=0;exitDy=0;" edge="1" parent="1" target="5BW_tHudnOTtSBd-slWF-32">
          <mxGeometry width="100" height="100" relative="1" as="geometry">
            <mxPoint x="1150" y="322" as="sourcePoint" />
            <mxPoint x="1150" y="652" as="targetPoint" />
          </mxGeometry>
        </mxCell>
        <mxCell id="sSm314KVVRNHcJD5WZiC-27" value="" style="edgeStyle=entityRelationEdgeStyle;fontSize=12;html=1;endArrow=ERzeroToMany;startArrow=ERmandOne;rounded=0;" edge="1" parent="1" target="5BW_tHudnOTtSBd-slWF-99">
          <mxGeometry width="100" height="100" relative="1" as="geometry">
            <mxPoint x="569" y="635" as="sourcePoint" />
            <mxPoint x="631" y="636" as="targetPoint" />
          </mxGeometry>
        </mxCell>
        <mxCell id="sSm314KVVRNHcJD5WZiC-31" value="" style="edgeStyle=entityRelationEdgeStyle;fontSize=12;html=1;endArrow=ERzeroToMany;startArrow=ERmandOne;rounded=0;" edge="1" parent="1" target="sSm314KVVRNHcJD5WZiC-15">
          <mxGeometry width="100" height="100" relative="1" as="geometry">
            <mxPoint x="569" y="648" as="sourcePoint" />
            <mxPoint x="630" y="808" as="targetPoint" />
          </mxGeometry>
        </mxCell>
        <mxCell id="sSm314KVVRNHcJD5WZiC-32" value="" style="edgeStyle=orthogonalEdgeStyle;fontSize=12;html=1;endArrow=ERzeroToMany;startArrow=ERmandOne;rounded=0;entryX=1;entryY=0.5;entryDx=0;entryDy=0;exitX=0;exitY=0.5;exitDx=0;exitDy=0;" edge="1" parent="1" source="5BW_tHudnOTtSBd-slWF-31" target="sSm314KVVRNHcJD5WZiC-16">
          <mxGeometry width="100" height="100" relative="1" as="geometry">
            <mxPoint x="690" y="720" as="sourcePoint" />
            <mxPoint x="790" y="620" as="targetPoint" />
          </mxGeometry>
        </mxCell>
        <mxCell id="sSm314KVVRNHcJD5WZiC-33" value="" style="edgeStyle=orthogonalEdgeStyle;fontSize=12;html=1;endArrow=ERzeroToMany;startArrow=ERmandOne;rounded=0;" edge="1" parent="1" target="5BW_tHudnOTtSBd-slWF-75">
          <mxGeometry width="100" height="100" relative="1" as="geometry">
            <mxPoint x="1150" y="305" as="sourcePoint" />
            <mxPoint x="1240" y="920.0000000000002" as="targetPoint" />
            <Array as="points">
              <mxPoint x="1220" y="305" />
              <mxPoint x="1220" y="585" />
            </Array>
          </mxGeometry>
        </mxCell>
        <mxCell id="sSm314KVVRNHcJD5WZiC-34" value="" style="edgeStyle=orthogonalEdgeStyle;fontSize=12;html=1;endArrow=ERzeroToMany;startArrow=ERmandOne;rounded=0;exitX=0;exitY=0.5;exitDx=0;exitDy=0;strokeColor=default;" edge="1" parent="1" source="5BW_tHudnOTtSBd-slWF-2" target="5BW_tHudnOTtSBd-slWF-77">
          <mxGeometry width="100" height="100" relative="1" as="geometry">
            <mxPoint x="580" y="990" as="sourcePoint" />
            <mxPoint x="680" y="890" as="targetPoint" />
            <Array as="points">
              <mxPoint x="330" y="645" />
              <mxPoint x="330" y="895" />
            </Array>
          </mxGeometry>
        </mxCell>
        <mxCell id="sSm314KVVRNHcJD5WZiC-35" value="" style="edgeStyle=orthogonalEdgeStyle;fontSize=12;html=1;endArrow=ERoneToMany;startArrow=ERmandOne;rounded=0;strokeColor=default;" edge="1" parent="1" source="5BW_tHudnOTtSBd-slWF-34" target="5BW_tHudnOTtSBd-slWF-76">
          <mxGeometry width="100" height="100" relative="1" as="geometry">
            <mxPoint x="1040" y="930" as="sourcePoint" />
            <mxPoint x="1310" y="890" as="targetPoint" />
            <Array as="points">
              <mxPoint x="1540" y="555" />
              <mxPoint x="1540" y="865" />
            </Array>
          </mxGeometry>
        </mxCell>
      </root>
    </mxGraphModel>
  </diagram>
</mxfile>
